# xmcd
#
# Track frame offsets:
#  150
#  10457
#  20036
#  32051
#  43064
#  52334
#  61863
#  73041
#  85475
#  100318
#  111235
#  131230
#  146042
#  162772
#
# Disc length: 2463 seconds
#
# Revision: 1
# Processed by: cddbd v1.5.2PL0 Copyright (c) Steve Scherf et al.
# Submitted via: AltoMP3_Maker 3.0
#
DISCID=d2099d0e
DTITLE=The Bo-Stevens - A Little More Road
DYEAR=2007
DGENRE=Honky Tonk
TTITLE0=Honky Tonk Saturday Night
TTITLE1=You Did it Again
TTITLE2=I Need a Drink
TTITLE3=I'm Over You
TTITLE4=One More Town
TTITLE5=Stop
TTITLE6=Happy Faces
TTITLE7=Bottom of the Bottle
TTITLE8=Damn This Heart
TTITLE9=A Girl Like You
TTITLE10=Lace
TTITLE11=Honky Tonk Woman
TTITLE12=My Companion
TTITLE13=Satisfied
EXTD=
EXTT0=
EXTT1=
EXTT2=
EXTT3=
EXTT4=
EXTT5=
EXTT6=
EXTT7=
EXTT8=
EXTT9=
EXTT10=
EXTT11=
EXTT12=
EXTT13=
PLAYORDER=
